HIERARCHY
ROOT Root
{
  OFFSET 0.0 0.0 0.0
  CHANNELS 6 Xposition Yposition Zposition Zrotation Yrotation Xrotation
  JOINT Hips
  {
    OFFSET 0.0 100.0 0.0
    CHANNELS 6 Xposition Yposition Zposition Zrotation Yrotation Xrotation
    JOINT Spine1
    {
      OFFSET -0.013727 5.003763 -0.053727
      CHANNELS 3 Zrotation Yrotation Xrotation
      JOINT Spine2
      {
        OFFSET -0.0 7.125301 -0.029825
        CHANNELS 3 Zrotation Yrotation Xrotation
        JOINT Chest
        {
          OFFSET -1e-06 7.550063 -0.815971
          CHANNELS 3 Zrotation Yrotation Xrotation
          JOINT Neck1
          {
            OFFSET -0.181677 26.311295 -0.553348
            CHANNELS 3 Zrotation Yrotation Xrotation
            JOINT Neck2
            {
              OFFSET -3e-06 7.709397 2.302585
              CHANNELS 3 Zrotation Yrotation Xrotation
              JOINT Head
              {
                OFFSET -5e-06 6.128916 1.953709
                CHANNELS 3 Zrotation Yrotation Xrotation
                JOINT HeadEnd
                {
                  OFFSET 0.003598 16.065403 -1.835379
                  CHANNELS 3 Zrotation Yrotation Xrotation
                }
                JOINT Jaw
                {
                  OFFSET 0.002637 0.475592 3.094941
                  CHANNELS 3 Zrotation Yrotation Xrotation
                }
                JOINT LeftEye
                {
                  OFFSET 3.206381 5.380205 7.586883
                  CHANNELS 3 Zrotation Yrotation Xrotation
                }
                JOINT RightEye
                {
                  OFFSET -3.22244 5.361869 7.558234
                  CHANNELS 3 Zrotation Yrotation Xrotation
                }
              }
            }
          }
          JOINT LeftShoulder
          {
            OFFSET 1.621652 23.237164 5.113413
            CHANNELS 3 Zrotation Yrotation Xrotation
            JOINT LeftArm
            {
              OFFSET 14.919846 2e-06 -5.502326
              CHANNELS 3 Zrotation Yrotation Xrotation
              JOINT LeftForeArm
              {
                OFFSET 28.739307 0.0 -0.002588
                CHANNELS 3 Zrotation Yrotation Xrotation
                JOINT LeftHand
                {
                  OFFSET 27.093981 -1e-06 0.002609
                  CHANNELS 3 Zrotation Yrotation Xrotation
                  JOINT LeftHandThumb1
                  {
                    OFFSET 2.276482 -1.392045 3.191413
                    CHANNELS 3 Zrotation Yrotation Xrotation
                    JOINT LeftHandThumb2
                    {
                      OFFSET 4.012836 -1.828127 1.641654
                      CHANNELS 3 Zrotation Yrotation Xrotation
                      JOINT LeftHandThumb3
                      {
                        OFFSET 2.798515 0.0 -3e-06
                        CHANNELS 3 Zrotation Yrotation Xrotation
                        JOINT LeftHandThumbEnd
                        {
                          OFFSET 3.180793 -4e-06 4e-06
                          CHANNELS 3 Zrotation Yrotation Xrotation
                        }
                      }
                    }
                  }
                  JOINT LeftHandIndex1
                  {
                    OFFSET 3.247555 -0.531998 2.296169
                    CHANNELS 3 Zrotation Yrotation Xrotation
                    JOINT LeftHandIndex2
                    {
                      OFFSET 6.364578 0.01206 0.1786
                      CHANNELS 3 Zrotation Yrotation Xrotation
                      JOINT LeftHandIndex3
                      {
                        OFFSET 3.662364 0.0 0.0
                        CHANNELS 3 Zrotation Yrotation Xrotation
                        JOINT LeftHandIndex4
                        {
                          OFFSET 2.329242 4e-06 4e-06
                          CHANNELS 3 Zrotation Yrotation Xrotation
                          JOINT LeftHandIndexEnd
                          {
                            OFFSET 2.759615 -0.180537 -0.113024
                            CHANNELS 3 Zrotation Yrotation Xrotation
                          }
                        }
                      }
                    }
                  }
                  JOINT LeftHandMiddle1
                  {
                    OFFSET 3.163495 0.240981 1.000332
                    CHANNELS 3 Zrotation Yrotation Xrotation
                    JOINT LeftHandMiddle2
                    {
                      OFFSET 6.19078 -0.259278 -1.002548
                      CHANNELS 3 Zrotation Yrotation Xrotation
                      JOINT LeftHandMiddle3
                      {
                        OFFSET 4.35652 -4e-06 -1e-06
                        CHANNELS 3 Zrotation Yrotation Xrotation
                        JOINT LeftHandMiddle4
                        {
                          OFFSET 2.996877 -8e-06 0.0
                          CHANNELS 3 Zrotation Yrotation Xrotation
                          JOINT LeftHandMiddleEnd
                          {
                            OFFSET 2.304287 -0.294569 -0.031741
                            CHANNELS 3 Zrotation Yrotation Xrotation
                          }
                        }
                      }
                    }
                  }
                  JOINT LeftHandRing1
                  {
                    OFFSET 2.882643 -0.053652 -0.322543
                    CHANNELS 3 Zrotation Yrotation Xrotation
                    JOINT LeftHandRing2
                    {
                      OFFSET 5.854541 -0.486202 -1.373841
                      CHANNELS 3 Zrotation Yrotation Xrotation
                      JOINT LeftHandRing3
                      {
                        OFFSET 4.350578 0.0 3e-06
                        CHANNELS 3 Zrotation Yrotation Xrotation
                        JOINT LeftHandRing4
                        {
                          OFFSET 2.651321 7e-06 2e-06
                          CHANNELS 3 Zrotation Yrotation Xrotation
                          JOINT LeftHandRingEnd
                          {
                            OFFSET 1.936105 0.077687 -7.1e-05
                            CHANNELS 3 Zrotation Yrotation Xrotation
                          }
                        }
                      }
                    }
                  }
                  JOINT LeftHandPinky1
                  {
                    OFFSET 2.8655 -0.310005 -1.600378
                    CHANNELS 3 Zrotation Yrotation Xrotation
                    JOINT LeftHandPinky2
                    {
                      OFFSET 5.087849 -1.331141 -1.77123
                      CHANNELS 3 Zrotation Yrotation Xrotation
                      JOINT LeftHandPinky3
                      {
                        OFFSET 3.070974 4e-06 0.0
                        CHANNELS 3 Zrotation Yrotation Xrotation
                        JOINT LeftHandPinky4
                        {
                          OFFSET 1.549672 0.0 1e-06
                          CHANNELS 3 Zrotation Yrotation Xrotation
                          JOINT LeftHandPinkyEnd
                          {
                            OFFSET 1.944893 -0.157802 0.057219
                            CHANNELS 3 Zrotation Yrotation Xrotation
                          }
                        }
                      }
                    }
                  }
                }
              }
            }
          }
          JOINT RightShoulder
          {
            OFFSET -1.380118 23.180309 5.214158
            CHANNELS 3 Zrotation Yrotation Xrotation
            JOINT RightArm
            {
              OFFSET -15.037196 1.2e-05 -5.545604
              CHANNELS 3 Zrotation Yrotation Xrotation
              JOINT RightForeArm
              {
                OFFSET -28.736639 2e-06 -0.002597
                CHANNELS 3 Zrotation Yrotation Xrotation
                JOINT RightHand
                {
                  OFFSET -27.133619 -0.0 0.002613
                  CHANNELS 3 Zrotation Yrotation Xrotation
                  JOINT RightHandThumb1
                  {
                    OFFSET -2.274032 -1.383988 3.163127
                    CHANNELS 3 Zrotation Yrotation Xrotation
                    JOINT RightHandThumb2
                    {
                      OFFSET -4.011429 -1.827466 1.640914
                      CHANNELS 3 Zrotation Yrotation Xrotation
                      JOINT RightHandThumb3
                      {
                        OFFSET -2.794935 -4e-06 -3e-06
                        CHANNELS 3 Zrotation Yrotation Xrotation
                        JOINT RightHandThumbEnd
                        {
                          OFFSET -3.183852 4e-06 1e-06
                          CHANNELS 3 Zrotation Yrotation Xrotation
                        }
                      }
                    }
                  }
                  JOINT RightHandIndex1
                  {
                    OFFSET -3.253266 -0.520057 2.282866
                    CHANNELS 3 Zrotation Yrotation Xrotation
                    JOINT RightHandIndex2
                    {
                      OFFSET -6.341917 0.012471 0.178266
                      CHANNELS 3 Zrotation Yrotation Xrotation
                      JOINT RightHandIndex3
                      {
                        OFFSET -3.654871 -8e-06 -0.0
                        CHANNELS 3 Zrotation Yrotation Xrotation
                        JOINT RightHandIndex4
                        {
                          OFFSET -2.327586 0.0 1e-06
                          CHANNELS 3 Zrotation Yrotation Xrotation
                          JOINT RightHandIndexEnd
                          {
                            OFFSET -2.76179 -0.180656 -0.113078
                            CHANNELS 3 Zrotation Yrotation Xrotation
                          }
                        }
                      }
                    }
                  }
                  JOINT RightHandMiddle1
                  {
                    OFFSET -3.168106 0.246593 1.00103
                    CHANNELS 3 Zrotation Yrotation Xrotation
                    JOINT RightHandMiddle2
                    {
                      OFFSET -6.180828 -0.258836 -1.000895
                      CHANNELS 3 Zrotation Yrotation Xrotation
                      JOINT RightHandMiddle3
                      {
                        OFFSET -4.348901 0.0 -0.0
                        CHANNELS 3 Zrotation Yrotation Xrotation
                        JOINT RightHandMiddle4
                        {
                          OFFSET -3.00024 -4e-06 -2e-06
                          CHANNELS 3 Zrotation Yrotation Xrotation
                          JOINT RightHandMiddleEnd
                          {
                            OFFSET -2.30252 -0.29437 -0.031706
                            CHANNELS 3 Zrotation Yrotation Xrotation
                          }
                        }
                      }
                    }
                  }
                  JOINT RightHandRing1
                  {
                    OFFSET -2.88569 -0.067952 -0.308858
                    CHANNELS 3 Zrotation Yrotation Xrotation
                    JOINT RightHandRing2
                    {
                      OFFSET -5.854198 -0.48613 -1.373731
                      CHANNELS 3 Zrotation Yrotation Xrotation
                      JOINT RightHandRing3
                      {
                        OFFSET -4.33881 -4e-06 -0.0
                        CHANNELS 3 Zrotation Yrotation Xrotation
                        JOINT RightHandRing4
                        {
                          OFFSET -2.654903 -4e-06 4e-06
                          CHANNELS 3 Zrotation Yrotation Xrotation
                          JOINT RightHandRingEnd
                          {
                            OFFSET -1.933568 0.077527 -5.2e-05
                            CHANNELS 3 Zrotation Yrotation Xrotation
                          }
                        }
                      }
                    }
                  }
                  JOINT RightHandPinky1
                  {
                    OFFSET -2.866425 -0.342796 -1.584145
                    CHANNELS 3 Zrotation Yrotation Xrotation
                    JOINT RightHandPinky2
                    {
                      OFFSET -5.091371 -1.332055 -1.772385
                      CHANNELS 3 Zrotation Yrotation Xrotation
                      JOINT RightHandPinky3
                      {
                        OFFSET -3.062664 -4e-06 1e-06
                        CHANNELS 3 Zrotation Yrotation Xrotation
                        JOINT RightHandPinky4
                        {
                          OFFSET -1.546529 4e-06 -2e-06
                          CHANNELS 3 Zrotation Yrotation Xrotation
                          JOINT RightHandPinkyEnd
                          {
                            OFFSET -1.945119 -0.157718 0.057211
                            CHANNELS 3 Zrotation Yrotation Xrotation
                          }
                        }
                      }
                    }
                  }
                }
              }
            }
          }
        }
      }
    }
    JOINT LeftLeg
    {
      OFFSET 10.043214 -8.434526 2.595655
      CHANNELS 3 Zrotation Yrotation Xrotation
      JOINT LeftShin
      {
        OFFSET -1e-06 -43.221752 -0.802913
        CHANNELS 3 Zrotation Yrotation Xrotation
        JOINT LeftFoot
        {
          OFFSET 1e-06 -42.155094 -3.481523
          CHANNELS 3 Zrotation Yrotation Xrotation
          JOINT LeftToeBase
          {
            OFFSET 0.0 -5.059472 13.231529
            CHANNELS 3 Zrotation Yrotation Xrotation
            JOINT LeftToeEnd
            {
              OFFSET -0.009607 -1.647619 6.513017
              CHANNELS 3 Zrotation Yrotation Xrotation
            }
          }
        }
      }
    }
    JOINT RightLeg
    {
      OFFSET -10.047278 -8.29526 2.620317
      CHANNELS 3 Zrotation Yrotation Xrotation
      JOINT RightShin
      {
        OFFSET 1e-06 -43.362206 -0.805556
        CHANNELS 3 Zrotation Yrotation Xrotation
        JOINT RightFoot
        {
          OFFSET 2e-06 -42.117393 -3.478398
          CHANNELS 3 Zrotation Yrotation Xrotation
          JOINT RightToeBase
          {
            OFFSET -0.0 -5.079609 13.284196
            CHANNELS 3 Zrotation Yrotation Xrotation
            JOINT RightToeEnd
            {
              OFFSET 0.009532 -1.634378 6.460591
              CHANNELS 3 Zrotation Yrotation Xrotation
            }
          }
        }
      }
    }
  }
}
MOTION
Frames: 5
Frame Time: 0.03333333333333333
0.0 0.0 0.0 0.0 -0.0 0.0 11.33207 100.56852 230.031113 2.286865 4.26544 3.159666 -2.348614 -0.210656 -5.310037 -0.843965 -0.391252 -7.006013 -0.91265 -2.570489 13.041892 2.217832 2.011508 2.675112 -1.043157 -0.767631 -3.616724 1.763744 -2.40238 -7.880069 7.7e-05 -2.3e-05 6e-06 0.005065 0.003007 0.026703 0.717864 -3.737776 -10.622684 -0.708704 3.750036 -10.62698 -24.508968 -5.236929 15.358142 -45.2621 -5.571928 8.920881 0.156159 -34.625259 -0.137891 14.806394 4.647561 -14.625701 -5.882104 9.861285 0.70259 -10.936871 -0.360576 7.156203 1e-06 8.774824 -1e-06 -15.868579 17.986063 6.075901 -1.844032 2.498503 -2.507278 -10.163599 4.678944 4.621108 -20.976023 -4e-06 -1e-06 -21.226286 2.451694 -3.594001 0.0 -6e-06 -0.0 -1.362681 2.240798 -0.746324 -21.334913 0.584907 3.008321 -13.821213 -4e-06 -0.0 -23.887171 -0.249082 -0.839484 -59.779175 2.530805 -1.147232 -0.294025 1.679687 0.833256 -14.21821 0.093213 1.300578 -34.212051 -0.287569 0.967167 -20.033213 0.964533 1.212842 0.0 -0.0 -1e-06 -3.440387 0.788232 0.501655 -15.928185 -3.167311 2.999705 -6.338826 -1e-06 -1e-06 -18.123444 3.64818 -4.905671 -3e-06 1e-06 -2e-06 15.362514 8.871029 15.564029 57.252182 12.956843 27.828604 0.308332 25.758097 0.142273 -7.698754 0.764202 -13.20673 2.243541 -5.255035 -3.180157 14.28289 -0.826593 6.952502 -4e-06 -12.690601 1e-06 16.247316 -17.594374 2.569301 1.665667 -1.955921 -2.878298 4.727798 -4.170585 4.993923 11.020526 4e-06 -0.0 12.10905 -3.735715 -2.866785 0.0 -0.0 -1e-06 1.291985 -1.928549 -1.498089 14.800125 0.56747 3.865605 14.242569 -1.341734 -6.660656 19.631968 0.143927 -0.648243 49.661221 -0.561855 -6.382442 0.353029 -1.511151 -0.03194 20.222788 3.68431 2.316628 18.78727 6e-06 0.0 10.751627 -0.479868 1.397905 1e-06 2e-06 -1e-06 3.273807 0.305946 -0.58011 21.486813 11.830376 2.266132 8.162926 2e-06 -2e-06 18.39908 -3.798982 -4.940574 4e-06 1e-06 0.0 -5.450576 -0.23078 -8.329988 0.056059 0.056604 8.969489 2.304589 5.142303 -1.450658 1.625094 -1.952065 2.396543 -0.0 -0.0 2e-06 -6.679141 -4.927304 -8.765933 0.01417 0.125748 10.442605 4.207768 3.096408 -4.302207 -1.452553 1.015199 1.60023 -0.0 -0.0 -1e-06 
0.0 0.0 0.0 0.0 -0.0 0.0 11.219472 100.568222 230.643936 2.262156 4.10673 3.184454 -2.303938 -0.201482 -5.393188 -0.827063 -0.434796 -7.047899 -0.876619 -2.640416 13.043856 2.160485 2.031221 2.712714 -0.987004 -0.562545 -3.621928 1.665385 -2.230009 -8.022918 7.7e-05 -2.2e-05 6e-06 0.005314 0.008013 0.027183 0.714934 -3.732089 -10.616264 -0.70559 3.755093 -10.62324 -24.597044 -5.431216 15.277093 -45.053535 -6.402409 9.578249 0.108642 -35.206635 -0.10729 14.337506 4.592713 -13.748512 -5.882111 9.861292 0.702592 -10.93688 -0.360574 7.156212 -0.0 8.774831 1e-06 -15.830372 17.951157 6.07007 -1.844034 2.498505 -2.50728 -10.163608 4.678948 4.621113 -20.97604 -1e-06 2e-06 -21.226303 2.4517 -3.594003 -0.0 -5e-06 -1e-06 -1.362681 2.2408 -0.746323 -21.33493 0.584913 3.008326 -13.821223 -0.0 2e-06 -23.887186 -0.249076 -0.839483 -59.735313 2.5847 -1.158599 -0.294026 1.67969 0.833257 -14.218222 0.093216 1.300582 -34.212078 -0.287563 0.967171 -20.033232 0.964539 1.212846 1e-06 -0.0 -1e-06 -3.440392 0.788234 0.501656 -15.928201 -3.167311 2.99971 -6.338831 0.0 2e-06 -18.123461 3.648187 -4.905673 -4e-06 1e-06 -2e-06 15.37254 8.783523 15.509217 57.100861 12.584 28.139025 0.352584 25.807228 0.155215 -7.529216 0.776213 -12.919965 2.243544 -5.255043 -3.180159 14.282901 -0.826597 6.952509 -2e-06 -12.690618 1e-06 16.245916 -17.581049 2.546369 1.665667 -1.955922 -2.878299 4.727801 -4.170592 4.993927 11.020535 3e-06 -2e-06 12.10906 -3.735718 -2.866785 0.0 0.0 -1e-06 1.291986 -1.92855 -1.498091 14.800139 0.567468 3.865609 14.242582 -1.341737 -6.660662 19.631985 0.143926 -0.648244 49.637527 -0.564912 -6.40645 0.353029 -1.511152 -0.031941 20.222803 3.684313 2.31663 18.787287 4e-06 -2e-06 10.751636 -0.479869 1.397907 0.0 2e-06 -2e-06 3.273809 0.305948 -0.580111 21.48683 11.830384 2.266135 8.162932 2e-06 -2e-06 18.399097 -3.79899 -4.940581 4e-06 1e-06 0.0 -5.338526 -0.065343 -8.069633 0.05503 0.039805 9.168089 2.109863 5.165933 -1.847052 1.62233 -1.962003 2.370094 -0.0 -0.0 2e-06 -6.578651 -4.780407 -8.347734 0.020082 0.129188 10.291335 4.11361 2.998903 -4.619571 -1.450567 0.998446 1.591288 0.0 0.0 -1e-06 
0.0 0.0 0.0 0.0 -0.0 0.0 11.096384 100.556206 231.217377 2.22219 3.885039 3.188388 -2.261615 -0.185391 -5.468791 -0.808716 -0.48195 -7.094575 -0.824437 -2.68897 13.052534 2.080769 2.034173 2.77888 -0.940708 -0.375574 -3.636386 1.54425 -2.049649 -8.143801 7.7e-05 -2.2e-05 6e-06 0.0048 0.011389 0.025802 0.712946 -3.729242 -10.620068 -0.704924 3.75948 -10.627791 -24.658417 -5.620631 15.21668 -44.879925 -7.101006 10.140368 0.042818 -35.358585 -0.066767 13.942563 4.632115 -12.998344 -5.882113 9.861293 0.702592 -10.936878 -0.360572 7.156209 -1e-06 8.774832 -1e-06 -15.804117 17.907623 6.066019 -1.844035 2.498506 -2.507278 -10.163608 4.678951 4.621109 -20.976038 0.0 1e-06 -21.226303 2.451702 -3.594004 1e-06 -5e-06 -0.0 -1.362683 2.240798 -0.746323 -21.334929 0.584913 3.008324 -13.821223 -1e-06 1e-06 -23.887188 -0.249077 -0.839487 -59.706242 2.620419 -1.169801 -0.294025 1.679687 0.833257 -14.218217 0.093218 1.300581 -34.212074 -0.287558 0.967168 -20.033226 0.964539 1.212841 2e-06 0.0 -1e-06 -3.44039 0.788235 0.501656 -15.928194 -3.167309 2.999709 -6.33883 1e-06 1e-06 -18.123459 3.64819 -4.905674 -4e-06 0.0 -1e-06 15.385372 8.726986 15.462432 56.94997 12.403693 28.251963 0.375911 25.807768 0.156148 -7.500241 0.814375 -12.621837 2.243543 -5.25504 -3.180156 14.282894 -0.826597 6.952501 1e-06 -12.690609 -1e-06 16.244282 -17.582008 2.534609 1.665667 -1.955924 -2.878301 4.7278 -4.17059 4.993922 11.020528 0.0 -1e-06 12.109056 -3.735719 -2.866787 0.0 -0.0 -1e-06 1.291987 -1.928551 -1.49809 14.800131 0.567466 3.865607 14.242576 -1.341739 -6.660661 19.631969 0.143924 -0.648247 49.622028 -0.571352 -6.435288 0.35303 -1.51115 -0.031941 20.222797 3.684307 2.31663 18.787279 1e-06 -2e-06 10.75163 -0.479868 1.397904 0.0 2e-06 -0.0 3.273807 0.305947 -0.58011 21.486814 11.830376 2.266132 8.16293 2e-06 -1e-06 18.399086 -3.798988 -4.940582 4e-06 -0.0 0.0 -5.204895 0.129884 -7.830293 0.054026 0.026688 9.40881 1.933297 5.243029 -2.279368 1.619309 -1.973234 2.359319 -0.0 -0.0 2e-06 -6.460067 -4.621097 -7.992866 0.029215 0.132878 10.224763 4.021718 2.953857 -4.940937 -1.446633 0.981163 1.575841 0.0 0.0 -1e-06 
0.0 0.0 0.0 0.0 -0.0 0.0 10.966892 100.531624 231.755524 2.171201 3.621356 3.159355 -2.219671 -0.170474 -5.53401 -0.796584 -0.528708 -7.130579 -0.751285 -2.716294 13.06873 1.985339 2.043141 2.86573 -0.890429 -0.22595 -3.654169 1.396607 -1.87763 -8.257582 7.7e-05 -2.2e-05 6e-06 0.004445 0.015136 0.025135 0.711835 -3.72755 -10.628989 -0.70477 3.765555 -10.635947 -24.69343 -5.774941 15.174911 -44.716076 -7.607701 10.60726 -0.024987 -35.233608 -0.035527 13.604449 4.722604 -12.543318 -5.882109 9.861291 0.702592 -10.936875 -0.360573 7.156208 -1e-06 8.774828 0.0 -15.810974 17.874933 6.058919 -1.844034 2.498505 -2.507278 -10.163604 4.678947 4.621109 -20.97603 -3e-06 1e-06 -21.226297 2.451698 -3.594005 -1e-06 -6e-06 -0.0 -1.362683 2.240799 -0.746324 -21.334921 0.584912 3.008322 -13.821218 -1e-06 2e-06 -23.887178 -0.249076 -0.839485 -59.709888 2.633527 -1.177138 -0.294025 1.679688 0.833257 -14.218214 0.093217 1.300579 -34.212055 -0.287561 0.967167 -20.03322 0.964536 1.21284 2e-06 -1e-06 -2e-06 -3.440389 0.788234 0.501656 -15.928189 -3.167308 2.999707 -6.338828 1e-06 1e-06 -18.123453 3.648185 -4.905674 -3e-06 0.0 -1e-06 15.424661 8.715449 15.423319 56.770329 12.36546 28.202295 0.381693 25.850727 0.151633 -7.54376 0.877378 -12.346317 2.243542 -5.255038 -3.180158 14.282897 -0.826595 6.952504 -2e-06 -12.690607 0.0 16.239841 -17.586235 2.537697 1.665668 -1.955923 -2.878301 4.727801 -4.170588 4.993924 11.020534 2e-06 -2e-06 12.109058 -3.735717 -2.866786 -0.0 0.0 -1e-06 1.291986 -1.928549 -1.498088 14.800134 0.567467 3.865608 14.242579 -1.341737 -6.660661 19.631981 0.143925 -0.648244 49.612137 -0.569234 -6.456525 0.353029 -1.51115 -0.031939 20.222801 3.68431 2.316632 18.787283 5e-06 -2e-06 10.751633 -0.479868 1.397905 0.0 2e-06 -1e-06 3.273808 0.305947 -0.580111 21.486824 11.830379 2.266133 8.16293 4e-06 -1e-06 18.399092 -3.798985 -4.940577 4e-06 -0.0 -1e-06 -5.054933 0.344225 -7.584909 0.052314 0.017246 9.673273 1.767648 5.350414 -2.746629 1.617908 -1.983008 2.355745 -0.0 -0.0 2e-06 -6.328083 -4.437083 -7.68566 0.033783 0.140616 10.254822 3.910645 2.943575 -5.28295 -1.442973 0.969535 1.564577 0.0 0.0 -1e-06 
0.0 0.0 0.0 0.0 -0.0 0.0 10.848017 100.491585 232.258896 2.110144 3.32318 3.104997 -2.16907 -0.155521 -5.592347 -0.792905 -0.559417 -7.160975 -0.661622 -2.735153 13.103374 1.89061 2.072035 2.948767 -0.843831 -0.133616 -3.663576 1.225744 -1.700471 -8.365105 7.7e-05 -2.2e-05 6e-06 0.004755 0.017599 0.028525 0.709212 -3.7267 -10.630331 -0.701782 3.769853 -10.637186 -24.728466 -5.893643 15.142014 -44.511787 -7.922864 11.0574 -0.075605 -34.923298 -0.02307 13.256722 4.852867 -12.372079 -5.882111 9.861293 0.70259 -10.93688 -0.360575 7.156209 0.0 8.774831 -1e-06 -15.823472 17.851854 6.063013 -1.844033 2.498507 -2.507279 -10.163607 4.678948 4.621111 -20.97604 -3e-06 0.0 -21.226303 2.451698 -3.594003 -1e-06 -6e-06 0.0 -1.362683 2.240799 -0.746323 -21.33493 0.584911 3.008322 -13.821225 -2e-06 1e-06 -23.887188 -0.249081 -0.839487 -59.72319 2.630272 -1.180573 -0.294024 1.679688 0.833257 -14.218221 0.093217 1.300579 -34.212082 -0.287566 0.967168 -20.033232 0.964536 1.212842 2e-06 0.0 0.0 -3.440391 0.788235 0.501655 -15.928201 -3.167311 2.999708 -6.338831 -0.0 1e-06 -18.123459 3.648185 -4.905677 -4e-06 1e-06 -2e-06 15.497253 8.71711 15.400377 56.553032 12.461014 28.177788 0.332947 25.975397 0.132625 -7.686651 0.921884 -12.134899 2.243544 -5.255042 -3.180159 14.282904 -0.826595 6.952509 -3e-06 -12.690619 1e-06 16.224384 -17.592344 2.553825 1.665667 -1.955922 -2.878303 4.727801 -4.170591 4.993927 11.020536 3e-06 -2e-06 12.109061 -3.735718 -2.866787 -0.0 -0.0 -1e-06 1.291986 -1.928552 -1.498091 14.800144 0.56747 3.865611 14.242585 -1.341736 -6.660665 19.631987 0.14393 -0.648245 49.598442 -0.573794 -6.457241 0.353029 -1.511151 -0.031941 20.222809 3.684315 2.316631 18.787291 7e-06 -0.0 10.751639 -0.479868 1.397909 0.0 2e-06 -1e-06 3.27381 0.305947 -0.580113 21.486834 11.83039 2.266133 8.162936 3e-06 -1e-06 18.399101 -3.798988 -4.94058 3e-06 -0.0 0.0 -4.904147 0.571098 -7.332378 0.057032 0.010292 9.946039 1.606861 5.479484 -3.25865 1.617624 -1.987434 2.36191 -0.0 -0.0 2e-06 -6.1951 -4.225147 -7.443931 0.034694 0.149288 10.409348 3.805341 2.950006 -5.660886 -1.440555 0.969687 1.571373 0.0 0.0 -1e-06 
